<mxfile host="app.diagrams.net" agent="Mozilla/5.0 (Windows NT 10.0; Win64; x64) AppleWebKit/537.36 (KHTML, like Gecko) Chrome/128.0.0.0 Safari/537.36" version="24.8.3">
  <diagram name="Page-1" id="2WbNfhH_qlCJfVY0sPhJ">
    <mxGraphModel grid="1" page="1" gridSize="10" guides="1" tooltips="1" connect="1" arrows="1" fold="1" pageScale="1" pageWidth="827" pageHeight="1169" math="0" shadow="0">
      <root>
        <mxCell id="0" />
        <mxCell id="1" parent="0" />
        <mxCell id="ZY_nPQV06hk_zCamRV0n-1" value="考試系統" style="shape=umlLifeline;perimeter=lifelinePerimeter;whiteSpace=wrap;html=1;container=0;dropTarget=0;collapsible=0;recursiveResize=0;outlineConnect=0;portConstraint=eastwest;newEdgeStyle={&quot;edgeStyle&quot;:&quot;elbowEdgeStyle&quot;,&quot;elbow&quot;:&quot;vertical&quot;,&quot;curved&quot;:0,&quot;rounded&quot;:0};" vertex="1" parent="1">
          <mxGeometry x="285" y="60" width="100" height="780" as="geometry" />
        </mxCell>
        <mxCell id="ZY_nPQV06hk_zCamRV0n-2" value="" style="html=1;points=[];perimeter=orthogonalPerimeter;outlineConnect=0;targetShapes=umlLifeline;portConstraint=eastwest;newEdgeStyle={&quot;edgeStyle&quot;:&quot;elbowEdgeStyle&quot;,&quot;elbow&quot;:&quot;vertical&quot;,&quot;curved&quot;:0,&quot;rounded&quot;:0};" vertex="1" parent="ZY_nPQV06hk_zCamRV0n-1">
          <mxGeometry x="45" y="70" width="10" height="190" as="geometry" />
        </mxCell>
        <mxCell id="ZY_nPQV06hk_zCamRV0n-3" value="" style="html=1;points=[];perimeter=orthogonalPerimeter;outlineConnect=0;targetShapes=umlLifeline;portConstraint=eastwest;newEdgeStyle={&quot;edgeStyle&quot;:&quot;elbowEdgeStyle&quot;,&quot;elbow&quot;:&quot;vertical&quot;,&quot;curved&quot;:0,&quot;rounded&quot;:0};" vertex="1" parent="ZY_nPQV06hk_zCamRV0n-1">
          <mxGeometry x="45" y="320" width="10" height="190" as="geometry" />
        </mxCell>
        <mxCell id="ZY_nPQV06hk_zCamRV0n-4" value="" style="html=1;points=[];perimeter=orthogonalPerimeter;outlineConnect=0;targetShapes=umlLifeline;portConstraint=eastwest;newEdgeStyle={&quot;edgeStyle&quot;:&quot;elbowEdgeStyle&quot;,&quot;elbow&quot;:&quot;vertical&quot;,&quot;curved&quot;:0,&quot;rounded&quot;:0};" vertex="1" parent="ZY_nPQV06hk_zCamRV0n-1">
          <mxGeometry x="45" y="590" width="10" height="190" as="geometry" />
        </mxCell>
        <mxCell id="ZY_nPQV06hk_zCamRV0n-5" value="交卷" style="endArrow=block;endSize=16;endFill=0;html=1;rounded=0;" edge="1" parent="ZY_nPQV06hk_zCamRV0n-1">
          <mxGeometry width="160" relative="1" as="geometry">
            <mxPoint x="-95" y="610" as="sourcePoint" />
            <mxPoint x="45" y="610" as="targetPoint" />
          </mxGeometry>
        </mxCell>
        <mxCell id="ZY_nPQV06hk_zCamRV0n-6" value="交卷成功" style="endArrow=block;endSize=16;endFill=0;html=1;rounded=0;" edge="1" parent="ZY_nPQV06hk_zCamRV0n-1">
          <mxGeometry width="160" relative="1" as="geometry">
            <mxPoint x="45" y="750" as="sourcePoint" />
            <mxPoint x="-95" y="750" as="targetPoint" />
            <mxPoint as="offset" />
          </mxGeometry>
        </mxCell>
        <mxCell id="ZY_nPQV06hk_zCamRV0n-7" value="" style="html=1;points=[];perimeter=orthogonalPerimeter;outlineConnect=0;targetShapes=umlLifeline;portConstraint=eastwest;newEdgeStyle={&quot;edgeStyle&quot;:&quot;elbowEdgeStyle&quot;,&quot;elbow&quot;:&quot;vertical&quot;,&quot;curved&quot;:0,&quot;rounded&quot;:0};" vertex="1" parent="ZY_nPQV06hk_zCamRV0n-1">
          <mxGeometry x="-105" y="590" width="10" height="190" as="geometry" />
        </mxCell>
        <mxCell id="ZY_nPQV06hk_zCamRV0n-8" value="考試&lt;span style=&quot;color: rgba(0, 0, 0, 0); font-family: monospace; font-size: 0px; text-align: start; text-wrap-mode: nowrap;&quot;&gt;%3CmxGraphModel%3E%3Croot%3E%3CmxCell%20id%3D%220%22%2F%3E%3CmxCell%20id%3D%221%22%20parent%3D%220%22%2F%3E%3CmxCell%20id%3D%222%22%20value%3D%22%E7%AE%A1%E7%90%86%E5%93%A1%22%20style%3D%22swimlane%3Bhtml%3D1%3BstartSize%3D20%3Bcontainer%3D0%3B%22%20vertex%3D%221%22%20parent%3D%221%22%3E%3CmxGeometry%20x%3D%2270%22%20y%3D%2240%22%20width%3D%22160%22%20height%3D%22750%22%20as%3D%22geometry%22%2F%3E%3C%2FmxCell%3E%3CmxCell%20id%3D%223%22%20value%3D%22%22%20style%3D%22ellipse%3Bhtml%3D1%3Bshape%3DendState%3BfillColor%3D%23000000%3BstrokeColor%3D%23ff0000%3B%22%20vertex%3D%221%22%20parent%3D%222%22%3E%3CmxGeometry%20x%3D%2265%22%20y%3D%2240%22%20width%3D%2230%22%20height%3D%2230%22%20as%3D%22geometry%22%2F%3E%3C%2FmxCell%3E%3CmxCell%20id%3D%224%22%20value%3D%22%22%20style%3D%22rounded%3D1%3BwhiteSpace%3Dwrap%3Bhtml%3D1%3B%22%20vertex%3D%221%22%20parent%3D%222%22%3E%3CmxGeometry%20x%3D%2220%22%20y%3D%2290%22%20width%3D%22120%22%20height%3D%2260%22%20as%3D%22geometry%22%2F%3E%3C%2FmxCell%3E%3C%2Froot%3E%3C%2FmxGraphModel%3E&lt;/span&gt;" style="shape=umlLifeline;perimeter=lifelinePerimeter;whiteSpace=wrap;html=1;container=0;dropTarget=0;collapsible=0;recursiveResize=0;outlineConnect=0;portConstraint=eastwest;newEdgeStyle={&quot;edgeStyle&quot;:&quot;elbowEdgeStyle&quot;,&quot;elbow&quot;:&quot;vertical&quot;,&quot;curved&quot;:0,&quot;rounded&quot;:0};" vertex="1" parent="1">
          <mxGeometry x="465" y="60" width="100" height="780" as="geometry" />
        </mxCell>
        <mxCell id="ZY_nPQV06hk_zCamRV0n-9" value="" style="html=1;points=[];perimeter=orthogonalPerimeter;outlineConnect=0;targetShapes=umlLifeline;portConstraint=eastwest;newEdgeStyle={&quot;edgeStyle&quot;:&quot;elbowEdgeStyle&quot;,&quot;elbow&quot;:&quot;vertical&quot;,&quot;curved&quot;:0,&quot;rounded&quot;:0};" vertex="1" parent="ZY_nPQV06hk_zCamRV0n-8">
          <mxGeometry x="45" y="70" width="10" height="190" as="geometry" />
        </mxCell>
        <mxCell id="ZY_nPQV06hk_zCamRV0n-10" value="" style="html=1;points=[];perimeter=orthogonalPerimeter;outlineConnect=0;targetShapes=umlLifeline;portConstraint=eastwest;newEdgeStyle={&quot;edgeStyle&quot;:&quot;elbowEdgeStyle&quot;,&quot;elbow&quot;:&quot;vertical&quot;,&quot;curved&quot;:0,&quot;rounded&quot;:0};" vertex="1" parent="ZY_nPQV06hk_zCamRV0n-8">
          <mxGeometry x="45" y="310" width="10" height="190" as="geometry" />
        </mxCell>
        <mxCell id="ZY_nPQV06hk_zCamRV0n-11" value="學生" style="shape=umlActor;verticalLabelPosition=bottom;verticalAlign=top;html=1;outlineConnect=0;" vertex="1" parent="1">
          <mxGeometry x="170" y="50" width="30" height="60" as="geometry" />
        </mxCell>
        <mxCell id="ZY_nPQV06hk_zCamRV0n-12" value="" style="endArrow=none;dashed=1;html=1;rounded=0;" edge="1" parent="1" source="ZY_nPQV06hk_zCamRV0n-15" target="ZY_nPQV06hk_zCamRV0n-11">
          <mxGeometry width="50" height="50" relative="1" as="geometry">
            <mxPoint x="185" y="360" as="sourcePoint" />
            <mxPoint x="184.5" y="130" as="targetPoint" />
          </mxGeometry>
        </mxCell>
        <mxCell id="ZY_nPQV06hk_zCamRV0n-13" value="考試答案" style="shape=umlLifeline;perimeter=lifelinePerimeter;whiteSpace=wrap;html=1;container=0;dropTarget=0;collapsible=0;recursiveResize=0;outlineConnect=0;portConstraint=eastwest;newEdgeStyle={&quot;edgeStyle&quot;:&quot;elbowEdgeStyle&quot;,&quot;elbow&quot;:&quot;vertical&quot;,&quot;curved&quot;:0,&quot;rounded&quot;:0};" vertex="1" parent="1">
          <mxGeometry x="620" y="60" width="100" height="780" as="geometry" />
        </mxCell>
        <mxCell id="ZY_nPQV06hk_zCamRV0n-14" value="" style="html=1;points=[];perimeter=orthogonalPerimeter;outlineConnect=0;targetShapes=umlLifeline;portConstraint=eastwest;newEdgeStyle={&quot;edgeStyle&quot;:&quot;elbowEdgeStyle&quot;,&quot;elbow&quot;:&quot;vertical&quot;,&quot;curved&quot;:0,&quot;rounded&quot;:0};" vertex="1" parent="ZY_nPQV06hk_zCamRV0n-13">
          <mxGeometry x="45" y="570" width="10" height="210" as="geometry" />
        </mxCell>
        <mxCell id="ZY_nPQV06hk_zCamRV0n-15" value="" style="html=1;points=[];perimeter=orthogonalPerimeter;outlineConnect=0;targetShapes=umlLifeline;portConstraint=eastwest;newEdgeStyle={&quot;edgeStyle&quot;:&quot;elbowEdgeStyle&quot;,&quot;elbow&quot;:&quot;vertical&quot;,&quot;curved&quot;:0,&quot;rounded&quot;:0};" vertex="1" parent="1">
          <mxGeometry x="180" y="130" width="10" height="190" as="geometry" />
        </mxCell>
        <mxCell id="ZY_nPQV06hk_zCamRV0n-16" value="請求考試列表" style="endArrow=block;endSize=16;endFill=0;html=1;rounded=0;" edge="1" parent="1">
          <mxGeometry width="160" relative="1" as="geometry">
            <mxPoint x="190" y="150" as="sourcePoint" />
            <mxPoint x="330" y="150" as="targetPoint" />
          </mxGeometry>
        </mxCell>
        <mxCell id="ZY_nPQV06hk_zCamRV0n-17" value="顯示考試列表" style="endArrow=block;endSize=16;endFill=0;html=1;rounded=0;" edge="1" parent="1" source="ZY_nPQV06hk_zCamRV0n-2">
          <mxGeometry width="160" relative="1" as="geometry">
            <mxPoint x="200" y="300" as="sourcePoint" />
            <mxPoint x="190" y="290" as="targetPoint" />
            <mxPoint as="offset" />
          </mxGeometry>
        </mxCell>
        <mxCell id="ZY_nPQV06hk_zCamRV0n-18" value="返回當前用戶的考試" style="endArrow=block;endSize=16;endFill=0;html=1;rounded=0;" edge="1" parent="1" source="ZY_nPQV06hk_zCamRV0n-8">
          <mxGeometry x="-0.0029" width="160" relative="1" as="geometry">
            <mxPoint x="480" y="290" as="sourcePoint" />
            <mxPoint x="340" y="290" as="targetPoint" />
            <mxPoint as="offset" />
          </mxGeometry>
        </mxCell>
        <mxCell id="ZY_nPQV06hk_zCamRV0n-19" value="獲取當前用戶的考試" style="endArrow=block;endSize=16;endFill=0;html=1;rounded=0;" edge="1" parent="1" target="ZY_nPQV06hk_zCamRV0n-9">
          <mxGeometry width="160" relative="1" as="geometry">
            <mxPoint x="340" y="150" as="sourcePoint" />
            <mxPoint x="480" y="150" as="targetPoint" />
          </mxGeometry>
        </mxCell>
        <mxCell id="ZY_nPQV06hk_zCamRV0n-20" value="點擊進入考試" style="endArrow=block;endSize=16;endFill=0;html=1;rounded=0;" edge="1" parent="1">
          <mxGeometry width="160" relative="1" as="geometry">
            <mxPoint x="190" y="400" as="sourcePoint" />
            <mxPoint x="330" y="400" as="targetPoint" />
          </mxGeometry>
        </mxCell>
        <mxCell id="ZY_nPQV06hk_zCamRV0n-21" value="從考試詳情中&lt;div&gt;獲取題目信息並顯示&lt;/div&gt;" style="endArrow=block;endSize=16;endFill=0;html=1;rounded=0;" edge="1" parent="1">
          <mxGeometry width="160" relative="1" as="geometry">
            <mxPoint x="330" y="540" as="sourcePoint" />
            <mxPoint x="190" y="540" as="targetPoint" />
            <mxPoint as="offset" />
          </mxGeometry>
        </mxCell>
        <mxCell id="ZY_nPQV06hk_zCamRV0n-22" value="返回該條考試詳情" style="endArrow=block;endSize=16;endFill=0;html=1;rounded=0;" edge="1" parent="1">
          <mxGeometry x="-0.0029" width="160" relative="1" as="geometry">
            <mxPoint x="515" y="540" as="sourcePoint" />
            <mxPoint x="340" y="540" as="targetPoint" />
            <mxPoint as="offset" />
          </mxGeometry>
        </mxCell>
        <mxCell id="ZY_nPQV06hk_zCamRV0n-23" value="獲取該條考試詳情" style="endArrow=block;endSize=16;endFill=0;html=1;rounded=0;" edge="1" parent="1">
          <mxGeometry width="160" relative="1" as="geometry">
            <mxPoint x="340" y="400" as="sourcePoint" />
            <mxPoint x="510" y="400" as="targetPoint" />
          </mxGeometry>
        </mxCell>
        <mxCell id="ZY_nPQV06hk_zCamRV0n-24" value="" style="html=1;points=[];perimeter=orthogonalPerimeter;outlineConnect=0;targetShapes=umlLifeline;portConstraint=eastwest;newEdgeStyle={&quot;edgeStyle&quot;:&quot;elbowEdgeStyle&quot;,&quot;elbow&quot;:&quot;vertical&quot;,&quot;curved&quot;:0,&quot;rounded&quot;:0};" vertex="1" parent="1">
          <mxGeometry x="180" y="380" width="10" height="190" as="geometry" />
        </mxCell>
        <mxCell id="ZY_nPQV06hk_zCamRV0n-25" value="" style="endArrow=none;dashed=1;html=1;rounded=0;" edge="1" parent="1" source="ZY_nPQV06hk_zCamRV0n-24" target="ZY_nPQV06hk_zCamRV0n-15">
          <mxGeometry width="50" height="50" relative="1" as="geometry">
            <mxPoint x="184.5" y="420" as="sourcePoint" />
            <mxPoint x="185" y="330" as="targetPoint" />
          </mxGeometry>
        </mxCell>
        <mxCell id="ZY_nPQV06hk_zCamRV0n-26" value="" style="endArrow=none;dashed=1;html=1;rounded=0;" edge="1" parent="1" target="ZY_nPQV06hk_zCamRV0n-24">
          <mxGeometry width="50" height="50" relative="1" as="geometry">
            <mxPoint x="184.5" y="650" as="sourcePoint" />
            <mxPoint x="184.5" y="600" as="targetPoint" />
          </mxGeometry>
        </mxCell>
        <mxCell id="ZY_nPQV06hk_zCamRV0n-27" value="" style="endArrow=none;dashed=1;html=1;rounded=0;" edge="1" parent="1">
          <mxGeometry width="50" height="50" relative="1" as="geometry">
            <mxPoint x="185" y="840" as="sourcePoint" />
            <mxPoint x="184.5" y="840" as="targetPoint" />
          </mxGeometry>
        </mxCell>
        <mxCell id="ZY_nPQV06hk_zCamRV0n-28" value="保存作答訊息" style="endArrow=block;endSize=16;endFill=0;html=1;rounded=0;" edge="1" parent="1" target="ZY_nPQV06hk_zCamRV0n-14">
          <mxGeometry width="160" relative="1" as="geometry">
            <mxPoint x="340" y="670" as="sourcePoint" />
            <mxPoint x="480" y="670" as="targetPoint" />
          </mxGeometry>
        </mxCell>
        <mxCell id="ZY_nPQV06hk_zCamRV0n-29" value="保存成功" style="endArrow=block;endSize=16;endFill=0;html=1;rounded=0;" edge="1" parent="1">
          <mxGeometry width="160" relative="1" as="geometry">
            <mxPoint x="692.84" y="810" as="sourcePoint" />
            <mxPoint x="337.1635294117646" y="810" as="targetPoint" />
            <mxPoint as="offset" />
          </mxGeometry>
        </mxCell>
      </root>
    </mxGraphModel>
  </diagram>
</mxfile>
